<svg xmlns="http://www.w3.org/2000/svg" xmlns:xlink="http://www.w3.org/1999/xlink" viewBox="0 0 1400 455"><defs><linearGradient id="i" x1="945" y1="450.11" x2="945" y2="361.76" gradientUnits="userSpaceOnUse"><stop offset="0" stop-color="#f9b0bd" stop-opacity="0"/><stop offset=".23" stop-color="#f9b0bd" stop-opacity=".01"/><stop offset=".37" stop-color="#f8afbd" stop-opacity=".05"/><stop offset=".49" stop-color="#f7adbe" stop-opacity=".11"/><stop offset=".59" stop-color="#f5aabe" stop-opacity=".2"/><stop offset=".69" stop-color="#f3a7bf" stop-opacity=".31"/><stop offset=".78" stop-color="#f0a3bf" stop-opacity=".45"/><stop offset=".86" stop-color="#ed9fc0" stop-opacity=".62"/><stop offset=".93" stop-color="#ea99c1" stop-opacity=".81"/><stop offset="1" stop-color="#e694c2"/></linearGradient><linearGradient id="j" x1="908.79" y1="-685.89" x2="908.79" y2="-774.24" gradientTransform="matrix(1 0 0 -1 0 -319)" gradientUnits="userSpaceOnUse"><stop offset="0" stop-color="#d681b2"/><stop offset=".04" stop-color="#d987b8" stop-opacity=".87"/><stop offset=".12" stop-color="#dd90c2" stop-opacity=".67"/><stop offset=".21" stop-color="#e198ca" stop-opacity=".49"/><stop offset=".3" stop-color="#e49ed1" stop-opacity=".34"/><stop offset=".39" stop-color="#e7a4d7" stop-opacity=".21"/><stop offset=".5" stop-color="#e9a8db" stop-opacity=".12"/><stop offset=".62" stop-color="#eaabdf" stop-opacity=".05"/><stop offset=".76" stop-color="#ebace0" stop-opacity=".01"/><stop offset="1" stop-color="#ebade1" stop-opacity="0"/></linearGradient><linearGradient id="k" x1="620.95" y1="-684.89" x2="620.95" y2="-773.24" gradientTransform="matrix(1 0 0 -1 0 -318)" gradientUnits="userSpaceOnUse"><stop offset="0" stop-color="#c390ec"/><stop offset="0" stop-color="#c390ec"/><stop offset=".07" stop-color="#c393f0" stop-opacity=".79"/><stop offset=".15" stop-color="#c396f4" stop-opacity=".6"/><stop offset=".23" stop-color="#c298f7" stop-opacity=".44"/><stop offset=".32" stop-color="#c29af9" stop-opacity=".3"/><stop offset=".41" stop-color="#c29cfb" stop-opacity=".19"/><stop offset=".51" stop-color="#c29dfd" stop-opacity=".11"/><stop offset=".63" stop-color="#c29efe" stop-opacity=".05"/><stop offset=".77" stop-color="#c29fff" stop-opacity=".01"/><stop offset="1" stop-color="#c29fff" stop-opacity="0"/></linearGradient><linearGradient id="l" x1="588.97" y1="-684.89" x2="588.97" y2="-773.24" gradientTransform="matrix(1 0 0 -1 0 -318)" gradientUnits="userSpaceOnUse"><stop offset="0" stop-color="#b280ee"/><stop offset="0" stop-color="#b381ee" stop-opacity=".99"/><stop offset=".08" stop-color="#bc8ef2" stop-opacity=".78"/><stop offset=".15" stop-color="#c49af5" stop-opacity=".6"/><stop offset=".23" stop-color="#cba5f8" stop-opacity=".44"/><stop offset=".32" stop-color="#d1aefa" stop-opacity=".3"/><stop offset=".41" stop-color="#d6b5fc" stop-opacity=".19"/><stop offset=".51" stop-color="#dabbfd" stop-opacity=".11"/><stop offset=".63" stop-color="#ddbffe" stop-opacity=".05"/><stop offset=".77" stop-color="#dfc1ff" stop-opacity=".01"/><stop offset="1" stop-color="#dfc2ff" stop-opacity="0"/></linearGradient><linearGradient id="m" x1="490.6" y1="-730.89" x2="490.6" y2="-819.24" gradientTransform="matrix(1 0 0 -1 0 -364)" gradientUnits="userSpaceOnUse"><stop offset="0" stop-color="#dca7e8"/><stop offset=".07" stop-color="#e3ade8" stop-opacity=".8"/><stop offset=".14" stop-color="#e9b3e9" stop-opacity=".61"/><stop offset=".23" stop-color="#efb9e9" stop-opacity=".45"/><stop offset=".31" stop-color="#f4bde9" stop-opacity=".31"/><stop offset=".41" stop-color="#f8c1ea" stop-opacity=".2"/><stop offset=".51" stop-color="#fbc4ea" stop-opacity=".11"/><stop offset=".63" stop-color="#fdc5ea" stop-opacity=".05"/><stop offset=".77" stop-color="#ffc7ea" stop-opacity=".01"/><stop offset="1" stop-color="#ffc7ea" stop-opacity="0"/></linearGradient><linearGradient id="n" x1="451.98" y1="-730.89" x2="451.98" y2="-819.24" gradientTransform="matrix(1 0 0 -1 0 -364)" gradientUnits="userSpaceOnUse"><stop offset="0" stop-color="#e397e0"/><stop offset=".06" stop-color="#e89fe6" stop-opacity=".82"/><stop offset=".14" stop-color="#eda8ec" stop-opacity=".63"/><stop offset=".22" stop-color="#f2b0f1" stop-opacity=".46"/><stop offset=".31" stop-color="#f6b7f5" stop-opacity=".32"/><stop offset=".4" stop-color="#f9bdf9" stop-opacity=".2"/><stop offset=".51" stop-color="#fcc1fc" stop-opacity=".11"/><stop offset=".62" stop-color="#fec4fe" stop-opacity=".05"/><stop offset=".76" stop-color="#ffc5ff" stop-opacity=".01"/><stop offset="1" stop-color="#ffc6ff" stop-opacity="0"/></linearGradient><linearGradient id="o" x1="784.48" y1="-380.89" x2="784.48" y2="-469.24" gradientTransform="matrix(1 0 0 -1 0 -14)" gradientUnits="userSpaceOnUse"><stop offset="0" stop-color="#7b93ee"/><stop offset="0" stop-color="#7c93ee" stop-opacity=".99"/><stop offset=".08" stop-color="#8c93ed" stop-opacity=".78"/><stop offset=".15" stop-color="#9a94ed" stop-opacity=".6"/><stop offset=".23" stop-color="#a694ec" stop-opacity=".44"/><stop offset=".32" stop-color="#b194ec" stop-opacity=".3"/><stop offset=".41" stop-color="#b995ec" stop-opacity=".19"/><stop offset=".51" stop-color="#c095eb" stop-opacity=".11"/><stop offset=".63" stop-color="#c495eb" stop-opacity=".05"/><stop offset=".77" stop-color="#c795eb" stop-opacity=".01"/><stop offset="1" stop-color="#c895eb" stop-opacity="0"/></linearGradient><linearGradient id="p" x1="748.28" y1="-380.89" x2="748.28" y2="-469.24" gradientTransform="matrix(1 0 0 -1 0 -14)" gradientUnits="userSpaceOnUse"><stop offset="0" stop-color="#6f8be8"/><stop offset=".07" stop-color="#7c8eed" stop-opacity=".8"/><stop offset=".14" stop-color="#8990f1" stop-opacity=".61"/><stop offset=".23" stop-color="#9493f5" stop-opacity=".45"/><stop offset=".31" stop-color="#9e95f8" stop-opacity=".31"/><stop offset=".41" stop-color="#a696fa" stop-opacity=".2"/><stop offset=".51" stop-color="#ac97fc" stop-opacity=".11"/><stop offset=".63" stop-color="#b098fe" stop-opacity=".05"/><stop offset=".77" stop-color="#b299ff" stop-opacity=".01"/><stop offset="1" stop-color="#b399ff" stop-opacity="0"/></linearGradient><linearGradient id="q" x1="855.09" y1="416.11" x2="1152.88" y2="416.11" gradientUnits="userSpaceOnUse"><stop offset="0" stop-color="#fff" stop-opacity="0"/><stop offset=".5" stop-color="#fff" stop-opacity=".7"/><stop offset="1" stop-color="#fff" stop-opacity="0"/></linearGradient><linearGradient id="a" x1="-2309.55" y1="-640.89" x2="-2309.55" y2="-729.24" gradientTransform="translate(3421.1 1091)" gradientUnits="userSpaceOnUse"><stop offset="0" stop-color="#c0aef5"/><stop offset=".01" stop-color="#c0aff4" stop-opacity=".96"/><stop offset=".08" stop-color="#bdb3f1" stop-opacity=".76"/><stop offset=".16" stop-color="#bbb7ee" stop-opacity=".58"/><stop offset=".24" stop-color="#b9baec" stop-opacity=".43"/><stop offset=".33" stop-color="#b8bdea" stop-opacity=".29"/><stop offset=".42" stop-color="#b6bfe8" stop-opacity=".19"/><stop offset=".52" stop-color="#b5c1e7" stop-opacity=".1"/><stop offset=".63" stop-color="#b5c2e6" stop-opacity=".04"/><stop offset=".77" stop-color="#b4c3e5" stop-opacity=".01"/><stop offset="1" stop-color="#b4c3e5" stop-opacity="0"/></linearGradient><linearGradient id="r" x1="-4011.28" y1="-252.89" x2="-4011.28" y2="-341.24" gradientTransform="translate(4374.55 703)" gradientUnits="userSpaceOnUse"><stop offset="0" stop-color="#ac9bff"/><stop offset=".02" stop-color="#ae9cff" stop-opacity=".93"/><stop offset=".09" stop-color="#b5a0ff" stop-opacity=".74"/><stop offset=".17" stop-color="#bba4ff" stop-opacity=".56"/><stop offset=".25" stop-color="#c0a7ff" stop-opacity=".41"/><stop offset=".33" stop-color="#c4a9ff" stop-opacity=".28"/><stop offset=".43" stop-color="#c8abff" stop-opacity=".18"/><stop offset=".53" stop-color="#cbadff" stop-opacity=".1"/><stop offset=".64" stop-color="#cdaeff" stop-opacity=".04"/><stop offset=".77" stop-color="#ceafff" stop-opacity=".01"/><stop offset="1" stop-color="#ceafff" stop-opacity="0"/></linearGradient><linearGradient id="s" x1="-1529.29" y1="-640.89" x2="-1529.29" y2="-729.24" gradientTransform="translate(1860.59 1091)" xlink:href="#a"/><linearGradient id="t" x1="163.53" y1="416.11" x2="817.3" y2="416.11" gradientUnits="userSpaceOnUse"><stop offset="0" stop-color="#fff" stop-opacity="0"/><stop offset=".5" stop-color="#fff" stop-opacity=".3"/><stop offset="1" stop-color="#fff" stop-opacity="0"/></linearGradient><linearGradient id="u" x1="348.79" y1="358.01" x2="348.79" y2="283.54" gradientUnits="userSpaceOnUse"><stop offset="0" stop-color="#8a8dff"/><stop offset="1" stop-color="#bd73f5" stop-opacity="0"/></linearGradient><linearGradient id="v" x1="363.28" y1="353.57" x2="363.28" y2="198.9" gradientUnits="userSpaceOnUse"><stop offset="0" stop-color="#8f75ff"/><stop offset="1" stop-color="#bd89ff" stop-opacity="0"/></linearGradient><linearGradient id="b" x1="363.28" y1="163.14" x2="363.28" y2="253.8" gradientTransform="rotate(-180 363.275 194.5)" gradientUnits="userSpaceOnUse"><stop offset="0" stop-color="#7e6eff"/><stop offset="1" stop-color="#bd73f5" stop-opacity="0"/></linearGradient><linearGradient id="w" x1="363.28" y1="163.14" x2="363.28" y2="253.8" gradientTransform="rotate(-180 363.275 180.03)" xlink:href="#b"/><linearGradient id="x" x1="363.28" y1="163.14" x2="363.28" y2="253.8" gradientTransform="rotate(-180 363.275 165.555)" xlink:href="#b"/><linearGradient id="y" x1="363.28" y1="163.14" x2="363.28" y2="253.8" gradientTransform="rotate(-180 363.275 223.445)" xlink:href="#b"/><linearGradient id="z" x1="363.28" y1="163.14" x2="363.28" y2="253.8" gradientTransform="rotate(-180 363.275 208.975)" xlink:href="#b"/><linearGradient id="A" x1="363.28" y1="163.14" x2="363.28" y2="253.8" gradientTransform="rotate(-180 363.275 252.39)" xlink:href="#b"/><linearGradient id="B" x1="363.28" y1="163.14" x2="363.28" y2="253.8" gradientTransform="rotate(-180 363.275 237.915)" xlink:href="#b"/><linearGradient id="C" x1="1037.33" y1="352.93" x2="1037.33" y2="186.81" gradientUnits="userSpaceOnUse"><stop offset="0" stop-color="#1a43ff"/><stop offset="1" stop-color="#9073d6" stop-opacity="0"/></linearGradient><linearGradient id="D" x1="589.57" y1="352.39" x2="589.57" y2="176.53" gradientUnits="userSpaceOnUse"><stop offset="0" stop-color="#6020ff"/><stop offset="1" stop-color="#bd73f5" stop-opacity="0"/></linearGradient><linearGradient id="E" x1="833.97" y1="349.44" x2="833.97" y2="120.31" gradientUnits="userSpaceOnUse"><stop offset="0" stop-color="#741eec"/><stop offset="1" stop-color="#5f73f5" stop-opacity="0"/></linearGradient><linearGradient id="F" x1="508.1" y1="362.85" x2="508.1" y2="261.64" gradientUnits="userSpaceOnUse"><stop offset="0" stop-color="#a567d7"/><stop offset="1" stop-color="#ac92f0"/></linearGradient><linearGradient id="c" x1="468.28" y1="362.85" x2="468.28" y2="261.64" gradientUnits="userSpaceOnUse"><stop offset="0" stop-color="#8360d7"/><stop offset="1" stop-color="#9a86f0"/></linearGradient><linearGradient id="G" x1="491.81" y1="362.85" x2="491.81" y2="261.64" xlink:href="#c"/><linearGradient id="H" x1="210" y1="285.55" x2="602.24" y2="285.55" gradientUnits="userSpaceOnUse"><stop offset="0" stop-color="#d874a7" stop-opacity="0"/><stop offset="1" stop-color="#e684a2"/></linearGradient><linearGradient id="I" x1="260.84" y1="193.77" x2="550.2" y2="193.77" gradientUnits="userSpaceOnUse"><stop offset="0" stop-color="#e684a2" stop-opacity=".1"/><stop offset="1" stop-color="#e684a2"/></linearGradient><linearGradient id="J" x1="903.97" y1="363.34" x2="903.97" y2="71.45" gradientUnits="userSpaceOnUse"><stop offset="0" stop-color="#8a4bdd"/><stop offset="1" stop-color="#b782ff"/></linearGradient><linearGradient id="K" x1="903.97" y1="79.33" x2="903.97" y2="186.68" gradientUnits="userSpaceOnUse"><stop offset="0" stop-color="#ac6aff"/><stop offset="1" stop-color="#855eff" stop-opacity="0"/></linearGradient><linearGradient id="d" x1="593.79" y1="383.24" x2="593.79" y2="85.94" gradientUnits="userSpaceOnUse"><stop offset="0" stop-color="#c96cc3"/><stop offset=".02" stop-color="#cb6dc0"/><stop offset=".53" stop-color="#ed7e82"/><stop offset=".71" stop-color="#e784a1"/><stop offset=".89" stop-color="#e288b9"/><stop offset="1" stop-color="#e08ac2"/></linearGradient><linearGradient id="L" x1="550.34" y1="383.24" x2="550.34" y2="85.94" xlink:href="#d"/><linearGradient id="M" x1="549.14" y1="383.24" x2="549.14" y2="85.94" xlink:href="#d"/><linearGradient id="N" x1="547.93" y1="383.24" x2="547.93" y2="85.94" xlink:href="#d"/><linearGradient id="O" x1="592.59" y1="383.24" x2="592.59" y2="85.94" xlink:href="#d"/><linearGradient id="P" x1="591.38" y1="383.24" x2="591.38" y2="85.94" xlink:href="#d"/><linearGradient id="Q" x1="547.93" y1="360.53" x2="547.93" y2="97.21" xlink:href="#d"/><linearGradient id="R" x1="593.79" y1="360.53" x2="593.79" y2="97.21" xlink:href="#d"/><linearGradient id="S" x1="1019.22" y1="347.82" x2="1019.22" y2="89.47" gradientUnits="userSpaceOnUse"><stop offset="0" stop-color="#5775f6"/><stop offset="1" stop-color="#9988f5"/></linearGradient><linearGradient id="T" x1="704.53" y1="350.65" x2="704.53" y2="143.28" xlink:href="#b"/><linearGradient id="U" x1="980.6" y1="347.82" x2="980.6" y2="89.47" gradientUnits="userSpaceOnUse"><stop offset="0" stop-color="#4f70eb"/><stop offset="1" stop-color="#8f7dff"/></linearGradient><linearGradient id="V" x1="1150.78" y1="352.93" x2="1150.78" y2="186.81" gradientUnits="userSpaceOnUse"><stop offset="0" stop-color="#825be4"/><stop offset="1" stop-color="#9f7aff"/></linearGradient><linearGradient id="W" x1="1120.6" y1="352.93" x2="1120.6" y2="186.81" gradientUnits="userSpaceOnUse"><stop offset="0" stop-color="#5b4acd"/><stop offset="1" stop-color="#9074eb"/></linearGradient><linearGradient id="e" x1="814.05" y1="81.74" x2="814.05" y2="164.57" gradientTransform="rotate(-90 814.055 123.345)" gradientUnits="userSpaceOnUse"><stop offset="0" stop-color="#c87dda"/><stop offset="1" stop-color="#c87dda" stop-opacity="0"/></linearGradient><linearGradient id="X" x1="799.57" y1="81.74" x2="799.57" y2="164.57" gradientTransform="rotate(-90 799.565 123.345)" xlink:href="#e"/><linearGradient id="Y" x1="785.09" y1="81.74" x2="785.09" y2="164.57" gradientTransform="rotate(-90 785.085 123.345)" xlink:href="#e"/><linearGradient id="f" x1="1050" y1="210.78" x2="1050" y2="87.56" gradientTransform="rotate(-90 1050 149.88)" gradientUnits="userSpaceOnUse"><stop offset="0" stop-color="#ffa7da" stop-opacity="0"/><stop offset="1" stop-color="#ffa7da"/></linearGradient><linearGradient id="Z" x1="1035.52" y1="131.6" x2="1035.52" y2="89.28" gradientTransform="rotate(-90 1035.515 110.685)" xlink:href="#f"/><linearGradient id="aa" x1="1064.48" y1="272.91" x2="1064.48" y2="86.2" gradientTransform="rotate(-90 1064.48 180.63)" xlink:href="#f"/><linearGradient id="ab" x1="620.95" y1="358.52" x2="620.95" y2="293.22" gradientUnits="userSpaceOnUse"><stop offset="0" stop-color="#a87fd3"/><stop offset="1" stop-color="#c27af4"/></linearGradient><linearGradient id="ac" x1="588.97" y1="358.52" x2="588.97" y2="293.22" gradientUnits="userSpaceOnUse"><stop offset="0" stop-color="#9862d3"/><stop offset="1" stop-color="#bd6df4"/></linearGradient><linearGradient id="ad" x1="490.6" y1="359.92" x2="490.6" y2="319.82" gradientUnits="userSpaceOnUse"><stop offset="0" stop-color="#dc92e8"/><stop offset="1" stop-color="#f2b7e3"/></linearGradient><linearGradient id="ae" x1="451.98" y1="359.92" x2="451.98" y2="319.82" gradientUnits="userSpaceOnUse"><stop offset="0" stop-color="#dc89d5"/><stop offset="1" stop-color="#ffa7d3"/></linearGradient><linearGradient id="af" x1="784.48" y1="352.93" x2="784.48" y2="186.81" gradientUnits="userSpaceOnUse"><stop offset="0" stop-color="#3e60cd"/><stop offset="1" stop-color="#9267eb"/></linearGradient><linearGradient id="ag" x1="748.28" y1="352.93" x2="748.28" y2="186.81" gradientUnits="userSpaceOnUse"><stop offset="0" stop-color="#3c5ed7"/><stop offset="1" stop-color="#8d53d6"/></linearGradient><linearGradient id="ah" x1="799.57" y1="204.07" x2="799.57" y2="362.66" gradientUnits="userSpaceOnUse"><stop offset="0" stop-color="#81eaff"/><stop offset=".77" stop-color="#90acff"/><stop offset=".99" stop-color="#9499ff"/></linearGradient><linearGradient id="ai" x1="799.57" y1="247.18" x2="799.57" y2="312.4" gradientUnits="userSpaceOnUse"><stop offset="0" stop-color="#b6ffff"/><stop offset=".78" stop-color="#78e1ff"/><stop offset=".99" stop-color="#66d9ff"/></linearGradient><linearGradient id="aj" x1="480.17" y1="273.75" x2="480.17" y2="350.94" gradientUnits="userSpaceOnUse"><stop offset="0" stop-color="#ffe6cb"/><stop offset="1" stop-color="#ffb4e1"/></linearGradient><linearGradient id="g" x1="457.83" y1="161.53" x2="457.83" y2="94.14" gradientUnits="userSpaceOnUse"><stop offset="0" stop-color="#ffbdc5"/><stop offset="1" stop-color="#ffe7ff"/></linearGradient><linearGradient id="ak" x1="402.5" y1="97.98" x2="402.5" y2="50.02" xlink:href="#g"/><linearGradient id="al" x1="1111.55" y1="359.6" x2="1111.55" y2="313.77" gradientUnits="userSpaceOnUse"><stop offset="0" stop-color="#988ce5"/><stop offset="1" stop-color="#d19df3"/></linearGradient><linearGradient id="am" x1="1111.55" y1="313.26" x2="1111.55" y2="301.8" gradientUnits="userSpaceOnUse"><stop offset="0" stop-color="#dca6ff"/><stop offset="1" stop-color="#ffc3cc"/></linearGradient><linearGradient id="an" x1="945" y1="358.52" x2="945" y2="293.22" gradientUnits="userSpaceOnUse"><stop offset="0" stop-color="#d47faa"/><stop offset="1" stop-color="#cc6fd6"/></linearGradient><linearGradient id="ao" x1="908.79" y1="358.52" x2="908.79" y2="293.22" gradientUnits="userSpaceOnUse"><stop offset="0" stop-color="#ce6688"/><stop offset="1" stop-color="#dc69c2"/></linearGradient><linearGradient id="ap" x1="331.29" y1="358.01" x2="331.29" y2="283.54" gradientUnits="userSpaceOnUse"><stop offset="0" stop-color="#c88fff"/><stop offset="1" stop-color="#e6bdff"/></linearGradient><linearGradient id="aq" x1="264.31" y1="383.24" x2="264.31" y2="85.94" xlink:href="#d"/><linearGradient id="ar" x1="220.86" y1="383.24" x2="220.86" y2="85.94" xlink:href="#d"/><linearGradient id="as" x1="219.66" y1="383.24" x2="219.66" y2="85.94" xlink:href="#d"/><linearGradient id="at" x1="218.45" y1="383.24" x2="218.45" y2="85.94" xlink:href="#d"/><linearGradient id="au" x1="263.1" y1="383.24" x2="263.1" y2="85.94" xlink:href="#d"/><linearGradient id="av" x1="261.9" y1="383.24" x2="261.9" y2="85.94" xlink:href="#d"/><linearGradient id="h" x1="218.45" y1="360.53" x2="218.45" y2="97.21" gradientUnits="userSpaceOnUse"><stop offset="0" stop-color="#c96cc3"/><stop offset=".53" stop-color="#ed7e82"/><stop offset=".71" stop-color="#e784a1"/><stop offset=".89" stop-color="#e288b9"/><stop offset="1" stop-color="#e08ac2"/></linearGradient><linearGradient id="aw" x1="264.31" y1="360.53" x2="264.31" y2="97.21" xlink:href="#h"/></defs><path fill="url(#i)" d="M893.71 362H996.3v93H893.71z"/><path fill="url(#j)" d="M893.71 362h30.17v93h-30.17z"/><path fill="url(#k)" d="M575.69 362h90.52v93h-90.52z"/><path fill="url(#l)" d="M575.69 362h26.55v93h-26.55z"/><path fill="url(#m)" d="M441.72 362h97.76v93h-97.76z"/><path fill="url(#n)" d="M441.72 362h20.52v93h-20.52z"/><path fill="url(#o)" d="M733.19 362h102.59v93H733.19z"/><path fill="url(#p)" d="M733.19 362h30.17v93h-30.17z"/><path fill="url(#q)" d="M1142.33 412.79H859.19l-4.1 6.63h282.41l4.83-6.63z"/><path transform="rotate(180 1111.55 408.5)" fill="url(#a)" d="M1075.34 362h72.41v93h-72.41z"/><path transform="rotate(180 363.275 408.5)" fill="url(#r)" d="M318.02 362h90.52v93h-90.52z"/><path transform="rotate(180 331.295 408.5)" fill="url(#s)" d="M295.09 362h72.41v93h-72.41z"/><path fill="url(#t)" d="M794.14 412.79h-626.5l-4.11 6.63h625.78l4.83-6.63z"/><path fill="url(#u)" d="M255.86 283.75h185.86v78.39H255.86z"/><path fill="url(#v)" d="M318.02 199.32h90.52v162.81h-90.52z"/><path transform="rotate(180 363.275 194.5)" fill="url(#b)" d="M318.02 192.09h90.52v4.82h-90.52z"/><path transform="rotate(180 363.275 180.03)" fill="url(#w)" d="M318.02 177.62h90.52v4.82h-90.52z"/><path transform="rotate(180 363.275 165.555)" fill="url(#x)" d="M318.02 163.14h90.52v4.82h-90.52z"/><path transform="rotate(180 363.275 223.445)" fill="url(#y)" d="M318.02 221.03h90.52v4.82h-90.52z"/><path transform="rotate(180 363.275 208.975)" fill="url(#z)" d="M318.02 206.56h90.52v4.82h-90.52z"/><path transform="rotate(180 363.275 252.39)" fill="url(#A)" d="M318.02 249.98h90.52v4.82h-90.52z"/><path transform="rotate(180 363.275 237.915)" fill="url(#B)" d="M318.02 235.51h90.52v4.82h-90.52z"/><path fill="url(#C)" d="M911.81 187.26h251.03v174.87H911.81z"/><path fill="url(#D)" d="M544.31 177.01h90.52v185.12h-90.52z"/><path fill="url(#E)" d="M782.67 120.93h102.59v241.2H782.67z"/><path fill="url(#F)" d="M462.24 259.63h91.72v102.51h-91.72z"/><path fill="url(#c)" d="M462.24 259.63h12.07v102.51h-12.07z"/><path fill="url(#G)" d="M485.78 259.63h12.07v102.51h-12.07z"/><path fill="url(#H)" d="M210 283.75h392.24v3.62H210z"/><path d="M544.46 137.55c-.88 2.91-1.86 5.84-2.92 8.71a153.31 153.31 0 0 1-39.67 59.64 144.2 144.2 0 0 1-62 33.81 140.41 140.41 0 0 1-76.51-2.2 145.17 145.17 0 0 1-59.79-37 153.26 153.26 0 0 1-33.23-51.93v15a158 158 0 0 0 28.94 41.16 151.19 151.19 0 0 0 62.28 38.5 146.41 146.41 0 0 0 79.77 2.29 150.23 150.23 0 0 0 64.62-35.22 159.35 159.35 0 0 0 41.24-62c1.1-3 2.12-6 3-9z" fill="url(#I)"/><path fill="url(#J)" d="M903.97.94l-50.69 361.2h101.37L903.97.94z"/><path fill="url(#J)" d="M879.83 69.68h48.28v292.46h-48.28z"/><path fill="url(#K)" d="M891.9 79.33h24.14v4.82H891.9zm0 14.47h24.14v4.82H891.9zm0 14.47h24.14v4.82H891.9zm0 14.47h24.14v4.82H891.9zm0 14.48h24.14v4.82H891.9zm0 14.47h24.14v4.82H891.9zm0 14.47h24.14v4.82H891.9zm0 14.47h24.14v4.82H891.9z"/><path fill="url(#d)" d="M585.34 176.41h16.9v110.95h-16.9z"/><path fill="url(#L)" d="M544.31 94.4h12.07v41h-12.07z"/><path fill="url(#M)" d="M541.9 135.41h14.48v41H541.9z"/><path fill="url(#N)" d="M539.48 176.41h16.9v110.95h-16.9z"/><path fill="url(#O)" d="M585.34 135.41h14.48v41h-14.48z"/><path fill="url(#P)" d="M585.34 94.4h12.07v41h-12.07z"/><path fill="#e4718b" d="M556.38 176.41h28.97v18.09h-28.97zm0 53.07h28.97v18.09h-28.97zm0-94.07h28.97v18.09h-28.97zm0-41.01h28.97v18.09h-28.97z"/><path d="M579.31 180.63h2.41v9.65h-2.41zm-4.83 0h2.41v9.65h-2.41zm-4.82 0h2.41v9.65h-2.41zm-4.83 0h2.41v9.65h-2.41zm-4.83 0h2.41v9.65H560zm19.31 53.07h2.41v9.65h-2.41zm-4.83 0h2.41v9.65h-2.41zm-4.82 0h2.41v9.65h-2.41zm-4.83 0h2.41v9.65h-2.41zm-4.83 0h2.41v9.65H560zm19.31-94.07h2.41v9.65h-2.41zm-4.83 0h2.41v9.65h-2.41zm-4.82 0h2.41v9.65h-2.41zm-4.83 0h2.41v9.65h-2.41zm-4.83 0h2.41v9.65H560zm19.31-41.01h2.41v9.65h-2.41zm-4.83 0h2.41v9.65h-2.41zm-4.82 0h2.41v9.65h-2.41zm-4.83 0h2.41v9.65h-2.41zm-4.83 0h2.41v9.65H560z" opacity=".1"/><path fill="#e189bd" d="M546.72 89.58h7.24v4.82h-7.24zm41.04 0H595v4.82h-7.24z"/><path fill="url(#Q)" d="M539.48 287.36h16.9v74.77h-16.9z"/><path fill="url(#R)" d="M585.34 287.36h16.9v74.77h-16.9z"/><path fill="url(#S)" d="M971.55 90.18h95.34v271.96h-95.34z"/><path fill="#e09eed" d="M666.75 110.08h96.62v4.82h-96.62zm0 14.47h96.62v4.82h-96.62zm0 14.47h96.62v4.82h-96.62zm0 14.48h96.62v4.82h-96.62zm0 14.47h96.62v4.82h-96.62zm0 14.47h96.62v4.82h-96.62zm0 14.47h96.62v4.82h-96.62zm0 14.47h96.62v4.82h-96.62zm0 14.48h96.62v4.82h-96.62zm0 14.47h96.62v4.82h-96.62zm0 14.47h96.62v4.82h-96.62zm0 14.47h96.62v4.82h-96.62zm0 14.48h96.62v4.82h-96.62zm0 14.47h96.62v4.82h-96.62z"/><path fill="url(#T)" d="M645.69 143.85h117.67v218.29H645.69z"/><path fill="url(#U)" d="M971.55 90.18h18.1v271.96h-18.1z"/><path fill="#a595f5" d="M983.02 69.68h72.41v20.5h-72.41z"/><path fill="#a587f5" d="M983.02 69.68h18.1v20.5h-18.1z"/><path fill="url(#V)" d="M1111.55 187.26H1190v174.87h-78.45z"/><path fill="url(#W)" d="M1111.55 187.26h18.1v174.87h-18.1z"/><path fill="#6a60da" d="M1176.72 200.53v144.72h-4.83V200.53zm-14.48 0v144.72h-4.83V200.53zm-14.48 0v144.72h-4.83V200.53z"/><path transform="rotate(90 814.055 123.345)" fill="url(#e)" d="M771.84 120.93h84.42v4.83h-84.42z"/><path transform="rotate(90 799.565 123.345)" fill="url(#X)" d="M757.36 120.93h84.42v4.83h-84.42z"/><path transform="rotate(90 785.085 123.345)" fill="url(#Y)" d="M742.88 120.93h84.42v4.83h-84.42z"/><path fill="#8081f4" d="M1066.9 90.18v271.96h-4.83V90.18zm-14.48 0v271.96h-4.83V90.18zm-14.48 0v271.96h-4.83V90.18zm-14.49 0v271.96h-4.83V90.18zm-14.48 0v271.96h-4.83V90.18zm-14.48 0v271.96h-4.83V90.18z"/><path transform="rotate(90 1050 149.88)" fill="url(#f)" d="M990.3 147.46h119.4v4.83H990.3z"/><path transform="rotate(90 1035.515 110.685)" fill="url(#Z)" d="M1015.01 108.27h41v4.83h-41z"/><path transform="rotate(90 1064.48 180.63)" fill="url(#aa)" d="M974.03 178.22h180.9v4.83h-180.9z"/><path fill="url(#ab)" d="M575.69 293.39h90.52v68.74h-90.52z"/><path fill="url(#ac)" d="M575.69 293.39h26.55v68.74h-26.55z"/><path fill="url(#ad)" d="M441.72 319.93h97.76v42.21h-97.76z"/><path fill="url(#ae)" d="M441.72 319.93h20.52v42.21h-20.52z"/><path fill="url(#af)" d="M733.19 187.26h102.59v174.87H733.19z"/><path fill="url(#ag)" d="M733.19 187.26h30.17v174.87h-30.17z"/><path fill="url(#ah)" d="M835.78 362.14V203.55l-72.42 63.91v94.68h72.42z" opacity=".52"/><path fill="url(#ai)" d="M835.78 249.37l-72.42 63.32v-2.41l72.42-63.32v2.41z"/><path fill="url(#aj)" d="M462.24 319.93v31.35l35.86-31.35h-35.86z"/><path d="M457.83 143.64c2.85-13.14 15.54-23 30.78-23a34 34 0 0 1 11.09 1.85c-7.23-6.74-19.84-7.65-30.82-1.51a31.66 31.66 0 0 0-11 10.15 31.66 31.66 0 0 0-11-10.15c-11-6.14-23.59-5.23-30.82 1.51a34 34 0 0 1 11.09-1.85c15.14-.05 27.85 9.86 30.68 23z" fill="url(#g)"/><path d="M402.5 85.25c2-9.35 11.06-16.4 21.9-16.4a24.17 24.17 0 0 1 7.89 1.31c-5.14-4.8-14.12-5.44-21.93-1.07a22.53 22.53 0 0 0-7.86 7.22 22.53 22.53 0 0 0-7.86-7.22c-7.81-4.37-16.79-3.72-21.93 1.07a24.17 24.17 0 0 1 7.89-1.31c10.84-.01 19.87 7.05 21.9 16.4z" fill="url(#ak)"/><path fill="url(#al)" d="M1075.34 313.9h72.41v48.24h-72.41z"/><path fill="url(#am)" d="M1084.4 301.84h54.31v12.06h-54.31z"/><path fill="url(#an)" d="M893.71 293.39H996.3v68.74H893.71z"/><path fill="url(#ao)" d="M893.71 293.39h30.17v68.74h-30.17z"/><path fill="#cd5da1" d="M964.91 303.04h12.07v4.82h-12.07zm0 14.47h12.07v4.82h-12.07zm0 14.48h12.07v4.82h-12.07zm0 14.47h12.07v4.82h-12.07z"/><path fill="url(#ap)" d="M295.09 283.75h72.41v78.39h-72.41z"/><path d="M1112.17 240.46c1.51-6.95 8.22-12.19 16.28-12.19a18 18 0 0 1 5.86 1c-3.82-3.56-10.49-4-16.3-.8a16.74 16.74 0 0 0-5.84 5.37 16.74 16.74 0 0 0-5.84-5.37c-5.81-3.25-12.48-2.77-16.3.8a18 18 0 0 1 5.86-1c8.11 0 14.77 5.24 16.28 12.19z" fill="#fff" opacity=".5"/><g opacity=".4"><path fill="url(#aq)" d="M255.86 176.41h16.9v110.95h-16.9z"/><path fill="url(#ar)" d="M214.83 94.4h12.07v41h-12.07z"/><path fill="url(#as)" d="M212.41 135.41h14.48v41h-14.48z"/><path fill="url(#at)" d="M210 176.41h16.9v110.95H210z"/><path fill="url(#au)" d="M255.86 135.41h14.48v41h-14.48z"/><path fill="url(#av)" d="M255.86 94.4h12.07v41h-12.07z"/><path fill="#e4718b" d="M226.9 176.41h28.97v18.09H226.9zm0 53.07h28.97v18.09H226.9zm0-94.07h28.97v18.09H226.9zm0-41.01h28.97v18.09H226.9z"/><path d="M249.83 180.63h2.41v9.65h-2.41zm-4.83 0h2.41v9.65H245zm-4.83 0h2.41v9.65h-2.41zm-4.83 0h2.41v9.65h-2.41zm-4.82 0h2.41v9.65h-2.41zm19.31 53.07h2.41v9.65h-2.41zm-4.83 0h2.41v9.65H245zm-4.83 0h2.41v9.65h-2.41zm-4.83 0h2.41v9.65h-2.41zm-4.82 0h2.41v9.65h-2.41zm19.31-94.07h2.41v9.65h-2.41zm-4.83 0h2.41v9.65H245zm-4.83 0h2.41v9.65h-2.41zm-4.83 0h2.41v9.65h-2.41zm-4.82 0h2.41v9.65h-2.41zm19.31-41.01h2.41v9.65h-2.41zm-4.83 0h2.41v9.65H245zm-4.83 0h2.41v9.65h-2.41zm-4.83 0h2.41v9.65h-2.41zm-4.82 0h2.41v9.65h-2.41z" opacity=".1"/><path fill="#e189bd" d="M217.24 89.58h7.24v4.82h-7.24zm41.04 0h7.24v4.82h-7.24z"/><path fill="url(#h)" d="M210 287.36h16.9v74.77H210z"/><path fill="url(#aw)" d="M255.86 287.36h16.9v74.77h-16.9z"/></g></svg>